Coordinates
version=1
nRows=24
nColumns=22
inDegrees=yes

Units are S.I. units (second, meters, Newtons, ...)
If the header above contains a line with 'inDegrees', this indicates whether rotational values are in degrees (yes) or radians (no).

endheader
time	pelvis_tilt	pelvis_list	pelvis_rotation	pelvis_tx	pelvis_ty	pelvis_tz	hip_flexion_r	hip_adduction_r	hip_rotation_r	knee_angle_r	ankle_angle_r	subtalar_angle_r	hip_flexion_l	hip_adduction_l	hip_rotation_l	knee_angle_l	ankle_angle_l	subtalar_angle_l	lumbar_extension	lumbar_bending	lumbar_rotation
      0.01000000	      1.26855641	     -0.59981773	     -7.09272792	     -1.19228790	      0.93362886	      0.74067995	     -3.68335433	     -4.06171593	      2.85467545	     -2.83536493	      9.42094215	      5.03889082	     -4.35065862	     -3.65556862	    -12.32771935	     -6.16998176	      7.32787139	      1.83558337	     -3.15381180	     -3.56923530	      2.48002594
      0.02000000	      1.28018803	     -0.60092665	     -7.09008872	     -1.19236559	      0.93363994	      0.74061568	     -3.68546152	     -4.06506472	      2.86204306	     -2.84583044	      9.42310574	      5.03842182	     -4.34372495	     -3.65477058	    -12.31598080	     -6.19635780	      7.32810328	      1.83452735	     -3.16430975	     -3.56940452	      2.48178666
      0.03000000	      1.29545556	     -0.60216795	     -7.08635341	     -1.19245858	      0.93365381	      0.74053643	     -3.69105869	     -4.06954234	      2.87318670	     -2.85534141	      9.42799784	      5.03653648	     -4.33455589	     -3.65399469	    -12.30511569	     -6.23276058	      7.33514309	      1.83209349	     -3.17941545	     -3.56934332	      2.48057147
      0.04000000	      1.31176126	     -0.60283316	     -7.08562519	     -1.19255669	      0.93366818	      0.74044898	     -3.69762354	     -4.07573630	      2.88724697	     -2.86287365	      9.43547577	      5.03388528	     -4.32498854	     -3.65162560	    -12.29761863	     -6.27242519	      7.34677294	      1.82841709	     -3.19481327	     -3.56907046	      2.47975008
      0.05000000	      1.32822379	     -0.60291474	     -7.08867408	     -1.19266029	      0.93368117	      0.74036313	     -3.70330657	     -4.08357917	      2.90453964	     -2.87008550	      9.44477646	      5.03108931	     -4.31516094	     -3.64858737	    -12.29446470	     -6.31328331	      7.36050041	      1.82355601	     -3.20976858	     -3.56981456	      2.48213081
      0.06000000	      1.34397951	     -0.60365472	     -7.09806700	     -1.19275868	      0.93369023	      0.74028932	     -3.70888756	     -4.09072596	      2.93158145	     -2.87563516	      9.46512481	      5.02408133	     -4.30183019	     -3.64671711	    -12.32325494	     -6.36285899	      7.39601102	      1.80729683	     -3.22115594	     -3.57080487	      2.48953946
      0.07000000	      1.35231699	     -0.60654702	     -7.11051543	     -1.19283539	      0.93370101	      0.74021877	     -3.70829334	     -4.09494399	      2.93263244	     -2.87830130	      9.46489114	      5.02370338	     -4.30075605	     -3.64413100	    -12.31809061	     -6.37519349	      7.39532963	      1.80645472	     -3.21891655	     -3.56589482	      2.49194365
      0.08000000	      1.36837553	     -0.61103510	     -7.12444516	     -1.19298829	      0.93372869	      0.74016911	     -3.70159695	     -4.09595595	      2.94423964	     -2.90075395	      9.46255478	      5.02366941	     -4.28480312	     -3.64777736	    -12.31423186	     -6.42613005	      7.39785881	      1.80158989	     -3.24049485	     -3.56728594	      2.52267570
      0.09000000	      1.37399601	     -0.61607497	     -7.14460870	     -1.19310404	      0.93374450	      0.74014637	     -3.69619781	     -4.09454231	      2.94010415	     -2.89934296	      9.46199173	      5.02391479	     -4.28116012	     -3.64987421	    -12.31422588	     -6.43592706	      7.39910584	      1.80060122	     -3.24224512	     -3.56759301	      2.52339325
      0.10000000	      1.36532451	     -0.65501004	     -7.18584194	     -1.19329417	      0.93374967	      0.74017124	     -3.64155320	     -4.05110724	      2.91921080	     -2.95789829	      9.44003513	      5.03442375	     -4.22581015	     -3.70025483	    -12.41015989	     -6.52865573	      7.44947669	      1.78546169	     -3.24007122	     -3.52867333	      2.57882000
      0.11000000	      1.35868018	     -0.67730999	     -7.21069783	     -1.19349898	      0.93376342	      0.74019668	     -3.60745971	     -4.02551516	      2.89661974	     -2.97795738	      9.42401529	      5.04010588	     -4.18830488	     -3.73008208	    -12.40804791	     -6.57708836	      7.45544626	      1.78363262	     -3.24283264	     -3.51650108	      2.62545710
      0.12000000	      1.29906751	     -0.73118795	     -7.24581202	     -1.19372878	      0.93371097	      0.74025256	     -3.50083341	     -3.95679804	      2.84832244	     -3.03051933	      9.38856102	      5.06560991	     -4.07952857	     -3.80723834	    -12.47634779	     -6.66373533	      7.52039733	      1.79199123	     -3.18685941	     -3.45477571	      2.63644299
      0.13000000	      1.26529688	     -0.78155179	     -7.28605744	     -1.19398645	      0.93370466	      0.74036040	     -3.41261540	     -3.89139737	      2.76699202	     -3.09433893	      9.35649415	      5.08149730	     -4.00952313	     -3.87746957	    -12.51363677	     -6.72659723	      7.53675201	      1.80201018	     -3.16502934	     -3.41272070	      2.67760678
      0.14000000	      1.21446626	     -0.85021115	     -7.32910634	     -1.19429014	      0.93368524	      0.74049455	     -3.30061406	     -3.80168732	      2.66809410	     -3.16474790	      9.32027274	      5.10540688	     -3.91115994	     -3.97409352	    -12.56619979	     -6.81061759	      7.57560756	      1.81946329	     -3.13257728	     -3.34764911	      2.71480712
      0.15000000	      1.11010279	     -0.92829943	     -7.36869557	     -1.19465540	      0.93359626	      0.74067314	     -3.12928265	     -3.69126096	      2.56616893	     -3.23409660	      9.28325077	      5.15479012	     -3.72432919	     -4.09979754	    -12.61482704	     -6.95428690	      7.65952974	      1.86705694	     -3.04554438	     -3.27344168	      2.75359224
      0.16000000	      1.06320911	     -1.01443175	     -7.43595609	     -1.19499561	      0.93360636	      0.74089287	     -3.00167601	     -3.57962522	      2.41639169	     -3.33413310	      9.24028504	      5.17581073	     -3.64772586	     -4.21519656	    -12.68706417	     -7.01137107	      7.67002515	      1.88395427	     -3.02595665	     -3.19335437	      2.79411178
      0.17000000	      0.95266834	     -1.11466041	     -7.48467294	     -1.19538850	      0.93352133	      0.74113636	     -2.81338455	     -3.43965664	      2.27816628	     -3.42291624	      9.19097677	      5.22697260	     -3.45255059	     -4.37169891	    -12.74907107	     -7.16799204	      7.76141260	      1.93743621	     -2.93940902	     -3.09957800	      2.83878219
      0.18000000	      0.87609759	     -1.20005803	     -7.54522519	     -1.19574013	      0.93348464	      0.74135925	     -2.65620642	     -3.32367038	      2.14427739	     -3.51993134	      9.15031924	      5.25985715	     -3.32321658	     -4.49727598	    -12.81425931	     -7.26726951	      7.80155422	      1.97348106	     -2.88779325	     -3.01824870	      2.87898732
      0.19000000	      0.86498050	     -1.25871692	     -7.60814038	     -1.19601628	      0.93353006	      0.74155269	     -2.57762593	     -3.24862069	      2.03579990	     -3.60464356	      9.11474836	      5.26417237	     -3.29959778	     -4.57242188	    -12.85500541	     -7.29520791	      7.78488605	      1.97460595	     -2.90217682	     -2.97353016	      2.92571400
      0.20000000	      0.79357774	     -1.32973135	     -7.64607624	     -1.19625115	      0.93346294	      0.74168150	     -2.45881638	     -3.15424986	      1.96835327	     -3.65799307	      9.08756207	      5.29141104	     -3.17276393	     -4.67911261	    -12.93008930	     -7.40584215	      7.86954669	      2.00112601	     -2.84034533	     -2.89535545	      2.92563680
      0.21000000	      0.77480425	     -1.35907558	     -7.68554428	     -1.19643616	      0.93346137	      0.74176524	     -2.38830580	     -3.11567426	      1.93718845	     -3.72520456	      9.06925458	      5.29870727	     -3.13209969	     -4.72012733	    -12.96033392	     -7.44709186	      7.87338776	      2.00816195	     -2.83048578	     -2.86882268	      2.93394345
      0.22000000	      0.78183410	     -1.36610189	     -7.70951110	     -1.19655277	      0.93348202	      0.74177846	     -2.36789477	     -3.10993539	      1.94650436	     -3.75649740	      9.06204628	      5.29965081	     -3.12722415	     -4.72658191	    -12.96296282	     -7.46823992	      7.87876957	      2.00820134	     -2.84048990	     -2.86073293	      2.91253388
      0.23000000	      0.78664787	     -1.36967598	     -7.72568079	     -1.19661029	      0.93349330	      0.74177677	     -2.36304258	     -3.10758961	      1.94647912	     -3.76054347	      9.06117268	      5.29986060	     -3.12811684	     -4.72819628	    -12.96272929	     -7.47614612	      7.87993441	      2.00769192	     -2.84024301	     -2.85934638	      2.90450138
      0.24000000	      0.80060759	     -1.37896051	     -7.73765768	     -1.19668419	      0.93351368	      0.74174021	     -2.35065474	     -3.10233310	      1.96891038	     -3.80183186	      9.05615696	      5.30079788	     -3.12990299	     -4.73486570	    -12.97944547	     -7.49901765	      7.89017589	      2.00286876	     -2.85707503	     -2.84352059	      2.86913891
